[img]http://img685.imageshack.us/img685/9153/warhorsel.jpg[/img]
[code]
War Horse 2011 DVDSCR XVID AC3-26K
Imdb: 
http://www.imdb.com/title/tt1568911/

Plot:
Young Albert enlists to service in WWI after his beloved horse, Joey, is sold to the cavalry. Albert's 

hopeful journey takes him out of England and across Europe as the war rages on.

Sources:
DVDR THNXS!

Notes:
ENJOY!

Greetz:
Xtreme Encode|FYA|ILLUMANTI|CM8|RX|VISION|HDSCENE|NIGHTMAREZ|xTriLL|DTRG|CRYS|REMIXHD|BIDA|RX|REFILL| 

INSPiRAL|SIC
To all the people who have helped me :P you know who you are

Anything to offer email us @: 26k@hushmail.me

 Video
ID                                       : 0
Format                                   : MPEG-4 Visual
Format profile                           : Advanced Simple@L5
Format settings, BVOP                    : 2
Format settings, QPel                    : No
Format settings, GMC                     : No warppoints
Format settings, Matrix                  : Default (H.263)
Muxing mode                              : Packed bitstream
Codec ID                                 : XVID
Codec ID/Hint                            : XviD
Duration                                 : 2h 26mn
Bit rate                                 : 1 734 Kbps
Width                                    : 720 pixels
Height                                   : 348 pixels
Display aspect ratio                     : 2.069
Frame rate                               : 23.976 fps
Color space                              : YUV
Chroma subsampling                       : 4:2:0
Bit depth                                : 8 bits
Scan type                                : Progressive
Compression mode                         : Lossy
Bits/(Pixel*Frame)                       : 0.289
Stream size                              : 1.78 GiB (79%)
Writing library                          : XviD 1.2.1 (UTC 2008-12-04)

Audio
ID                                       : 1
Format                                   : AC-3
Format/Info                              : Audio Coding 3
Mode extension                           : CM (complete main)
Codec ID                                 : 2000
Duration                                 : 2h 26mn
Bit rate mode                            : Constant
Bit rate                                 : 448 Kbps
Channel(s)                               : 6 channels
Channel positions                        : Front: L C R, Side: L R, LFE
Sampling rate                            : 48.0 KHz
Bit depth                                : 16 bits
Compression mode                         : Lossy
Stream size                              : 470 MiB (20%)
Alignment                                : Aligned on interleaves
Interleave, duration                     : 32 ms (0.77 video frame)
Interleave, preload duration             : 32 ms

[/code]
Screens:
[img]http://img651.imageshack.us/img651/6676/vlcsnap2012010916h17m21.png[/img]
[img]http://img716.imageshack.us/img716/1049/vlcsnap2012010916h17m26.png[/img]
[img]http://img39.imageshack.us/img39/9213/vlcsnap2012010916h17m36.png[/img]
[img]http://img259.imageshack.us/img259/1526/vlcsnap2012010916h17m41.png[/img]
[img]http://img713.imageshack.us/img713/3381/vlcsnap2012010916h18m09.png[/img]

[img]http://img851.imageshack.us/img851/5503/26ks.jpg[/img]
Thank you smallz for banner!